<mxfile host="app.diagrams.net" modified="2023-05-18T11:44:33.991Z" agent="Mozilla/5.0 (Windows NT 10.0; Win64; x64) AppleWebKit/537.36 (KHTML, like Gecko) Chrome/113.0.0.0 Safari/537.36" etag="qqNPImQfxwj_YwhLfziu" version="21.2.9" type="device">
  <diagram name="Seite-1" id="fOvd30tu-fD82u0pa9Tr">
    <mxGraphModel dx="1134" dy="686" grid="1" gridSize="10" guides="1" tooltips="1" connect="1" arrows="1" fold="1" page="1" pageScale="1" pageWidth="827" pageHeight="1169" math="0" shadow="0">
      <root>
        <mxCell id="0" />
        <mxCell id="1" parent="0" />
        <mxCell id="yz-FOdDoa7HWPcbYia1s-1" value="MVC Concept Diagram" style="shape=umlFrame;whiteSpace=wrap;html=1;pointerEvents=0;width=170;height=30;" vertex="1" parent="1">
          <mxGeometry x="10" width="750" height="610" as="geometry" />
        </mxCell>
        <mxCell id="yz-FOdDoa7HWPcbYia1s-2" value="Controller" style="shape=folder;fontStyle=1;spacingTop=10;tabWidth=40;tabHeight=14;tabPosition=left;html=1;whiteSpace=wrap;flipH=0;align=center;verticalAlign=top;" vertex="1" parent="1">
          <mxGeometry x="70" y="40" width="370" height="200" as="geometry" />
        </mxCell>
        <mxCell id="yz-FOdDoa7HWPcbYia1s-6" value="LedController" style="swimlane;fontStyle=0;childLayout=stackLayout;horizontal=1;startSize=26;fillColor=none;horizontalStack=0;resizeParent=1;resizeParentMax=0;resizeLast=0;collapsible=1;marginBottom=0;whiteSpace=wrap;html=1;" vertex="1" parent="1">
          <mxGeometry x="274" y="90" width="140" height="52" as="geometry" />
        </mxCell>
        <mxCell id="yz-FOdDoa7HWPcbYia1s-10" value="ScreenController" style="swimlane;fontStyle=0;childLayout=stackLayout;horizontal=1;startSize=26;fillColor=none;horizontalStack=0;resizeParent=1;resizeParentMax=0;resizeLast=0;collapsible=1;marginBottom=0;whiteSpace=wrap;html=1;" vertex="1" parent="1">
          <mxGeometry x="274" y="170" width="140" height="52" as="geometry" />
        </mxCell>
        <mxCell id="yz-FOdDoa7HWPcbYia1s-42" style="edgeStyle=orthogonalEdgeStyle;rounded=0;orthogonalLoop=1;jettySize=auto;html=1;entryX=0;entryY=0.5;entryDx=0;entryDy=0;" edge="1" parent="1" source="yz-FOdDoa7HWPcbYia1s-11" target="yz-FOdDoa7HWPcbYia1s-10">
          <mxGeometry relative="1" as="geometry" />
        </mxCell>
        <mxCell id="yz-FOdDoa7HWPcbYia1s-43" style="edgeStyle=orthogonalEdgeStyle;rounded=0;orthogonalLoop=1;jettySize=auto;html=1;entryX=0;entryY=0.5;entryDx=0;entryDy=0;" edge="1" parent="1" source="yz-FOdDoa7HWPcbYia1s-11" target="yz-FOdDoa7HWPcbYia1s-6">
          <mxGeometry relative="1" as="geometry" />
        </mxCell>
        <mxCell id="yz-FOdDoa7HWPcbYia1s-11" value="GameController" style="swimlane;fontStyle=0;childLayout=stackLayout;horizontal=1;startSize=26;fillColor=none;horizontalStack=0;resizeParent=1;resizeParentMax=0;resizeLast=0;collapsible=1;marginBottom=0;whiteSpace=wrap;html=1;" vertex="1" parent="1">
          <mxGeometry x="90" y="129" width="140" height="52" as="geometry" />
        </mxCell>
        <mxCell id="yz-FOdDoa7HWPcbYia1s-36" value="" style="group" vertex="1" connectable="0" parent="1">
          <mxGeometry x="70" y="285" width="296" height="300" as="geometry" />
        </mxCell>
        <mxCell id="yz-FOdDoa7HWPcbYia1s-3" value="Model" style="shape=folder;fontStyle=1;spacingTop=10;tabWidth=40;tabHeight=14;tabPosition=left;html=1;whiteSpace=wrap;verticalAlign=top;" vertex="1" parent="yz-FOdDoa7HWPcbYia1s-36">
          <mxGeometry width="296" height="300" as="geometry" />
        </mxCell>
        <mxCell id="yz-FOdDoa7HWPcbYia1s-26" value="GameModel" style="swimlane;fontStyle=0;childLayout=stackLayout;horizontal=1;startSize=26;fillColor=none;horizontalStack=0;resizeParent=1;resizeParentMax=0;resizeLast=0;collapsible=1;marginBottom=0;whiteSpace=wrap;html=1;" vertex="1" parent="yz-FOdDoa7HWPcbYia1s-36">
          <mxGeometry x="28" y="50" width="240" height="232" as="geometry">
            <mxRectangle x="90" y="400" width="110" height="30" as="alternateBounds" />
          </mxGeometry>
        </mxCell>
        <mxCell id="yz-FOdDoa7HWPcbYia1s-27" value="+ potiValue1: ObservableValue&amp;lt;Double&amp;gt;" style="text;strokeColor=none;fillColor=none;align=left;verticalAlign=top;spacingLeft=4;spacingRight=4;overflow=hidden;rotatable=0;points=[[0,0.5],[1,0.5]];portConstraint=eastwest;whiteSpace=wrap;html=1;" vertex="1" parent="yz-FOdDoa7HWPcbYia1s-26">
          <mxGeometry y="26" width="240" height="24" as="geometry" />
        </mxCell>
        <mxCell id="yz-FOdDoa7HWPcbYia1s-28" value="+ potiValue2: ObservableValue&amp;lt;Double&amp;gt;" style="text;strokeColor=none;fillColor=none;align=left;verticalAlign=top;spacingLeft=4;spacingRight=4;overflow=hidden;rotatable=0;points=[[0,0.5],[1,0.5]];portConstraint=eastwest;whiteSpace=wrap;html=1;" vertex="1" parent="yz-FOdDoa7HWPcbYia1s-26">
          <mxGeometry y="50" width="240" height="26" as="geometry" />
        </mxCell>
        <mxCell id="yz-FOdDoa7HWPcbYia1s-29" value="+ potiValue3: ObservableValue&amp;lt;Double&amp;gt;" style="text;strokeColor=none;fillColor=none;align=left;verticalAlign=top;spacingLeft=4;spacingRight=4;overflow=hidden;rotatable=0;points=[[0,0.5],[1,0.5]];portConstraint=eastwest;whiteSpace=wrap;html=1;" vertex="1" parent="yz-FOdDoa7HWPcbYia1s-26">
          <mxGeometry y="76" width="240" height="26" as="geometry" />
        </mxCell>
        <mxCell id="yz-FOdDoa7HWPcbYia1s-30" value="&lt;span style=&quot;color: rgb(0, 0, 0); font-family: Helvetica; font-size: 12px; font-style: normal; font-variant-ligatures: normal; font-variant-caps: normal; font-weight: 400; letter-spacing: normal; orphans: 2; text-align: left; text-indent: 0px; text-transform: none; widows: 2; word-spacing: 0px; -webkit-text-stroke-width: 0px; background-color: rgb(251, 251, 251); text-decoration-thickness: initial; text-decoration-style: initial; text-decoration-color: initial; float: none; display: inline !important;&quot;&gt;+ potiValue4: ObservableValue&amp;lt;Double&amp;gt;&lt;/span&gt;" style="text;strokeColor=none;fillColor=none;align=left;verticalAlign=top;spacingLeft=4;spacingRight=4;overflow=hidden;rotatable=0;points=[[0,0.5],[1,0.5]];portConstraint=eastwest;whiteSpace=wrap;html=1;" vertex="1" parent="yz-FOdDoa7HWPcbYia1s-26">
          <mxGeometry y="102" width="240" height="26" as="geometry" />
        </mxCell>
        <mxCell id="yz-FOdDoa7HWPcbYia1s-31" value="+ dayCount: SimpleIntegerProperty" style="text;strokeColor=none;fillColor=none;align=left;verticalAlign=top;spacingLeft=4;spacingRight=4;overflow=hidden;rotatable=0;points=[[0,0.5],[1,0.5]];portConstraint=eastwest;whiteSpace=wrap;html=1;" vertex="1" parent="yz-FOdDoa7HWPcbYia1s-26">
          <mxGeometry y="128" width="240" height="26" as="geometry" />
        </mxCell>
        <mxCell id="yz-FOdDoa7HWPcbYia1s-32" value="&lt;span style=&quot;color: rgb(0, 0, 0); font-family: Helvetica; font-size: 12px; font-style: normal; font-variant-ligatures: normal; font-variant-caps: normal; font-weight: 400; letter-spacing: normal; orphans: 2; text-align: left; text-indent: 0px; text-transform: none; widows: 2; word-spacing: 0px; -webkit-text-stroke-width: 0px; background-color: rgb(251, 251, 251); text-decoration-thickness: initial; text-decoration-style: initial; text-decoration-color: initial; float: none; display: inline !important;&quot;&gt;+&amp;nbsp;scorePlayerOne:&amp;nbsp;&lt;/span&gt;SimpleIntegerProperty" style="text;strokeColor=none;fillColor=none;align=left;verticalAlign=top;spacingLeft=4;spacingRight=4;overflow=hidden;rotatable=0;points=[[0,0.5],[1,0.5]];portConstraint=eastwest;whiteSpace=wrap;html=1;" vertex="1" parent="yz-FOdDoa7HWPcbYia1s-26">
          <mxGeometry y="154" width="240" height="26" as="geometry" />
        </mxCell>
        <mxCell id="yz-FOdDoa7HWPcbYia1s-33" value="+&amp;nbsp;scorePlayerTwo:&amp;nbsp;SimpleIntegerProperty" style="text;strokeColor=none;fillColor=none;align=left;verticalAlign=top;spacingLeft=4;spacingRight=4;overflow=hidden;rotatable=0;points=[[0,0.5],[1,0.5]];portConstraint=eastwest;whiteSpace=wrap;html=1;" vertex="1" parent="yz-FOdDoa7HWPcbYia1s-26">
          <mxGeometry y="180" width="240" height="26" as="geometry" />
        </mxCell>
        <mxCell id="yz-FOdDoa7HWPcbYia1s-34" value="+&amp;nbsp;highscore:&amp;nbsp;SimpleIntegerProperty" style="text;strokeColor=none;fillColor=none;align=left;verticalAlign=top;spacingLeft=4;spacingRight=4;overflow=hidden;rotatable=0;points=[[0,0.5],[1,0.5]];portConstraint=eastwest;whiteSpace=wrap;html=1;" vertex="1" parent="yz-FOdDoa7HWPcbYia1s-26">
          <mxGeometry y="206" width="240" height="26" as="geometry" />
        </mxCell>
        <mxCell id="yz-FOdDoa7HWPcbYia1s-39" style="edgeStyle=orthogonalEdgeStyle;rounded=0;orthogonalLoop=1;jettySize=auto;html=1;entryX=1;entryY=0.5;entryDx=0;entryDy=0;startArrow=classic;startFill=1;" edge="1" parent="1" source="yz-FOdDoa7HWPcbYia1s-20" target="yz-FOdDoa7HWPcbYia1s-10">
          <mxGeometry relative="1" as="geometry">
            <Array as="points">
              <mxPoint x="510" y="196" />
              <mxPoint x="510" y="196" />
            </Array>
          </mxGeometry>
        </mxCell>
        <mxCell id="yz-FOdDoa7HWPcbYia1s-40" style="edgeStyle=orthogonalEdgeStyle;rounded=0;orthogonalLoop=1;jettySize=auto;html=1;" edge="1" parent="1" source="yz-FOdDoa7HWPcbYia1s-6" target="yz-FOdDoa7HWPcbYia1s-18">
          <mxGeometry relative="1" as="geometry">
            <Array as="points">
              <mxPoint x="510" y="116" />
              <mxPoint x="510" y="116" />
            </Array>
          </mxGeometry>
        </mxCell>
        <mxCell id="yz-FOdDoa7HWPcbYia1s-44" style="edgeStyle=orthogonalEdgeStyle;rounded=0;orthogonalLoop=1;jettySize=auto;html=1;entryX=0.5;entryY=0;entryDx=0;entryDy=0;startArrow=classic;startFill=1;" edge="1" parent="1" source="yz-FOdDoa7HWPcbYia1s-11" target="yz-FOdDoa7HWPcbYia1s-26">
          <mxGeometry relative="1" as="geometry">
            <Array as="points">
              <mxPoint x="160" y="320" />
              <mxPoint x="218" y="320" />
            </Array>
          </mxGeometry>
        </mxCell>
        <mxCell id="yz-FOdDoa7HWPcbYia1s-4" value="View" style="shape=folder;fontStyle=1;spacingTop=10;tabWidth=40;tabHeight=14;tabPosition=left;html=1;whiteSpace=wrap;verticalAlign=top;" vertex="1" parent="1">
          <mxGeometry x="540" y="30" width="200" height="450" as="geometry" />
        </mxCell>
        <mxCell id="yz-FOdDoa7HWPcbYia1s-18" value="«Component»&lt;br&gt;&lt;b&gt;LED Strip&lt;/b&gt;" style="html=1;dropTarget=0;whiteSpace=wrap;" vertex="1" parent="1">
          <mxGeometry x="550" y="66" width="180" height="90" as="geometry" />
        </mxCell>
        <mxCell id="yz-FOdDoa7HWPcbYia1s-19" value="" style="shape=module;jettyWidth=8;jettyHeight=4;" vertex="1" parent="yz-FOdDoa7HWPcbYia1s-18">
          <mxGeometry x="1" width="20" height="20" relative="1" as="geometry">
            <mxPoint x="-27" y="7" as="offset" />
          </mxGeometry>
        </mxCell>
        <mxCell id="yz-FOdDoa7HWPcbYia1s-20" value="«Component»&lt;br&gt;&lt;b&gt;Screen.fxml&lt;/b&gt;" style="html=1;dropTarget=0;whiteSpace=wrap;" vertex="1" parent="1">
          <mxGeometry x="550" y="160" width="180" height="90" as="geometry" />
        </mxCell>
        <mxCell id="yz-FOdDoa7HWPcbYia1s-21" value="" style="shape=module;jettyWidth=8;jettyHeight=4;" vertex="1" parent="yz-FOdDoa7HWPcbYia1s-20">
          <mxGeometry x="1" width="20" height="20" relative="1" as="geometry">
            <mxPoint x="-27" y="7" as="offset" />
          </mxGeometry>
        </mxCell>
        <mxCell id="yz-FOdDoa7HWPcbYia1s-54" value="PhysicalUI" style="swimlane;fontStyle=0;childLayout=stackLayout;horizontal=1;startSize=26;fillColor=none;horizontalStack=0;resizeParent=1;resizeParentMax=0;resizeLast=0;collapsible=1;marginBottom=0;whiteSpace=wrap;html=1;" vertex="1" parent="1">
          <mxGeometry x="550" y="260" width="140" height="208" as="geometry" />
        </mxCell>
        <mxCell id="yz-FOdDoa7HWPcbYia1s-55" value="+ button1: SimpleButton" style="text;strokeColor=none;fillColor=none;align=left;verticalAlign=top;spacingLeft=4;spacingRight=4;overflow=hidden;rotatable=0;points=[[0,0.5],[1,0.5]];portConstraint=eastwest;whiteSpace=wrap;html=1;" vertex="1" parent="yz-FOdDoa7HWPcbYia1s-54">
          <mxGeometry y="26" width="140" height="26" as="geometry" />
        </mxCell>
        <mxCell id="yz-FOdDoa7HWPcbYia1s-56" value="+ button2: SimpleButton" style="text;strokeColor=none;fillColor=none;align=left;verticalAlign=top;spacingLeft=4;spacingRight=4;overflow=hidden;rotatable=0;points=[[0,0.5],[1,0.5]];portConstraint=eastwest;whiteSpace=wrap;html=1;" vertex="1" parent="yz-FOdDoa7HWPcbYia1s-54">
          <mxGeometry y="52" width="140" height="26" as="geometry" />
        </mxCell>
        <mxCell id="yz-FOdDoa7HWPcbYia1s-57" value="+ poti1: Potentiometer" style="text;strokeColor=none;fillColor=none;align=left;verticalAlign=top;spacingLeft=4;spacingRight=4;overflow=hidden;rotatable=0;points=[[0,0.5],[1,0.5]];portConstraint=eastwest;whiteSpace=wrap;html=1;" vertex="1" parent="yz-FOdDoa7HWPcbYia1s-54">
          <mxGeometry y="78" width="140" height="26" as="geometry" />
        </mxCell>
        <mxCell id="yz-FOdDoa7HWPcbYia1s-61" value="+ poti2: Potentiometer" style="text;strokeColor=none;fillColor=none;align=left;verticalAlign=top;spacingLeft=4;spacingRight=4;overflow=hidden;rotatable=0;points=[[0,0.5],[1,0.5]];portConstraint=eastwest;whiteSpace=wrap;html=1;" vertex="1" parent="yz-FOdDoa7HWPcbYia1s-54">
          <mxGeometry y="104" width="140" height="26" as="geometry" />
        </mxCell>
        <mxCell id="yz-FOdDoa7HWPcbYia1s-60" value="+ poti3: Potentiometer" style="text;strokeColor=none;fillColor=none;align=left;verticalAlign=top;spacingLeft=4;spacingRight=4;overflow=hidden;rotatable=0;points=[[0,0.5],[1,0.5]];portConstraint=eastwest;whiteSpace=wrap;html=1;" vertex="1" parent="yz-FOdDoa7HWPcbYia1s-54">
          <mxGeometry y="130" width="140" height="26" as="geometry" />
        </mxCell>
        <mxCell id="yz-FOdDoa7HWPcbYia1s-59" value="+ poti4: Potentiometer" style="text;strokeColor=none;fillColor=none;align=left;verticalAlign=top;spacingLeft=4;spacingRight=4;overflow=hidden;rotatable=0;points=[[0,0.5],[1,0.5]];portConstraint=eastwest;whiteSpace=wrap;html=1;" vertex="1" parent="yz-FOdDoa7HWPcbYia1s-54">
          <mxGeometry y="156" width="140" height="26" as="geometry" />
        </mxCell>
        <mxCell id="yz-FOdDoa7HWPcbYia1s-58" value="&lt;span style=&quot;color: rgb(0, 0, 0); font-family: Helvetica; font-size: 12px; font-style: normal; font-variant-ligatures: normal; font-variant-caps: normal; font-weight: 400; letter-spacing: normal; orphans: 2; text-align: left; text-indent: 0px; text-transform: none; widows: 2; word-spacing: 0px; -webkit-text-stroke-width: 0px; background-color: rgb(251, 251, 251); text-decoration-thickness: initial; text-decoration-style: initial; text-decoration-color: initial; float: none; display: inline !important;&quot;&gt;+ ads1115: Ads1115&lt;/span&gt;" style="text;strokeColor=none;fillColor=none;align=left;verticalAlign=top;spacingLeft=4;spacingRight=4;overflow=hidden;rotatable=0;points=[[0,0.5],[1,0.5]];portConstraint=eastwest;whiteSpace=wrap;html=1;" vertex="1" parent="yz-FOdDoa7HWPcbYia1s-54">
          <mxGeometry y="182" width="140" height="26" as="geometry" />
        </mxCell>
        <mxCell id="yz-FOdDoa7HWPcbYia1s-62" style="edgeStyle=orthogonalEdgeStyle;rounded=0;orthogonalLoop=1;jettySize=auto;html=1;entryX=0;entryY=0.5;entryDx=0;entryDy=0;startArrow=classic;startFill=1;endArrow=none;endFill=0;" edge="1" parent="1" source="yz-FOdDoa7HWPcbYia1s-11" target="yz-FOdDoa7HWPcbYia1s-61">
          <mxGeometry relative="1" as="geometry">
            <Array as="points">
              <mxPoint x="180" y="270" />
              <mxPoint x="440" y="270" />
              <mxPoint x="440" y="377" />
            </Array>
          </mxGeometry>
        </mxCell>
      </root>
    </mxGraphModel>
  </diagram>
</mxfile>
